<svg xmlns="http://www.w3.org/2000/svg" aria-hidden="true" style="position:absolute;width:0;height:0;overflow:hidden"><defs><symbol id="icon-air-conditioner" viewBox="0 0 32 32"><path stroke-linecap="round" stroke-linejoin="round" stroke-width="2.4" d="M28.571 1.142H3.429a2.286 2.286 0 0 0-2.286 2.286v11.429a2.286 2.286 0 0 0 2.286 2.285h25.144a2.285 2.285 0 0 0 2.285-2.285V3.426a2.285 2.285 0 0 0-2.285-2.285h-.002z"/><path stroke-linecap="round" stroke-linejoin="round" stroke-width="2.4" d="M25.142 17.142v-4.571a2.285 2.285 0 0 0-2.285-2.285H9.142a2.287 2.287 0 0 0-2.285 2.285v4.571M5.714 28.571h.229a3.2 3.2 0 0 0 3.2-3.2v-2.514m17.143 5.714h-.229a3.2 3.2 0 0 1-3.2-3.2v-2.514M16 30.858v-8"/></symbol><symbol id="icon-air" viewBox="0 0 32 32"><path d="M15.504 3.2H15.5a6.535 6.535 0 0 0-4.125 1.459l.012-.01a6.388 6.388 0 0 0-2.244 3.648l-.007.042-.115.576a.968.968 0 0 0 .406 1.038l.004.002a1.008 1.008 0 0 0 1.548-.65l.001-.006.118-.571a4.44 4.44 0 0 1 1.725-2.673l.013-.009a4.513 4.513 0 0 1 2.666-.864c1.314 0 2.498.557 3.328 1.448l.003.003a4.385 4.385 0 0 1 1.168 2.965 4.382 4.382 0 0 1-1.318 3.132l-.001.001a4.523 4.523 0 0 1-3.178 1.299H1.001c-.275 0-.524.11-.706.288a.974.974 0 0 0 0 1.392c.182.179.432.29.707.29h14.501a6.539 6.539 0 0 0 4.493-1.928 6.332 6.332 0 0 0 .001-8.943A6.525 6.525 0 0 0 15.512 3.2h-.008zM27 12.061h-.005a5.023 5.023 0 0 0-3.531 1.444l.001-.001a4.872 4.872 0 0 0-1.464 3.48c0 .262.106.512.293.696a1.006 1.006 0 0 0 1.414 0 .97.97 0 0 0 .293-.696c0-.584.176-1.155.506-1.64.33-.486.798-.864 1.346-1.088a2.986 2.986 0 0 1 1.146-.224c.827 0 1.576.33 2.125.865l-.001-.001a2.913 2.913 0 0 1 .642 3.238l.007-.019a2.986 2.986 0 0 1-1.093 1.318l-.011.007a3.034 3.034 0 0 1-1.667.498H.999c-.275 0-.524.11-.706.288a.975.975 0 0 0-.001 1.394c.182.178.431.288.705.288H20.5a2.519 2.519 0 0 1 1.765.725 2.44 2.44 0 0 1 .73 1.742 2.445 2.445 0 0 1-.736 1.739 2.543 2.543 0 0 1-1.774.718 2.539 2.539 0 0 1-1.632-.59l.004.003a2.483 2.483 0 0 1-.859-1.47l-.002-.015-.011-.059a.976.976 0 0 0-.394-.659l-.003-.002a1.008 1.008 0 0 0-1.571.585l-.001.007a.957.957 0 0 0-.001.397l-.001-.006.01.059a4.438 4.438 0 0 0 1.541 2.664 4.545 4.545 0 0 0 2.922 1.056 4.558 4.558 0 0 0 3.191-1.298l-.001.001A4.405 4.405 0 0 0 25 24.369c0-.912-.28-1.757-.758-2.461h2.767c1.374 0 2.619-.55 3.528-1.441l-.001.001A4.888 4.888 0 0 0 32 16.985a4.888 4.888 0 0 0-1.464-3.48 5.025 5.025 0 0 0-3.531-1.443h-.006z"/><path d="m15.504 3.2.198-7.997L15.6-4.8h-.096l.002 8zM9.136 8.339l-7.84-1.595-.002.014 7.842 1.581zm-.115.576 7.779 1.864.032-.141.03-.142L9.02 8.915zm1.958.384L3.144 7.688l-.03.149-.024.147 7.89 1.318zm.119-.571L3.264 7.114l7.835 1.614zm8.902.87h8v-.021l-8 .022zm-4.501 4.432v8h.005l-.003-8zM0 15.016zM15.501 16v8h.096l.096-.003L15.501 16zm8.499.984zM0 20.923zm20.501.984.016-8h-.016v8zm-.011 4.923.016-8h-.021l.005 8zm-2.493-2.07-7.888 1.334.002.013.003.014 7.883-1.362zm-.011-.059-7.925 1.09.016.123.021.122 7.888-1.334zm-1.972.321 7.888-1.334-.021-.12-.024-.118-7.843 1.573zm.01.06-7.888 1.336.003.013 7.885-1.349zM20.49 28.8l.003-8h-.005l.002 8zM25 24.368l8 .016v-.016h-8zm-.758-2.461v-8H9.128l8.499 12.499 6.614-4.499zM15.504-4.8H15.5a14.5 14.5 0 0 0-9.164 3.245l.027-.021 10.048 12.451a1.437 1.437 0 0 1-.905.325l-.002-16zM6.363-1.576A14.398 14.398 0 0 0 1.312 6.65l-.016.094 15.68 3.19c-.08.392-.291.72-.565.941L6.363-1.576zM1.294 6.758l-.117.574 15.686 3.163.115-.574L1.295 6.758zm-.054.292a8.728 8.728 0 0 0-.247 2.089c0 .544.048 1.076.141 1.593l-.008-.054 15.763-2.739c.165.944.133 1.91-.09 2.842l-15.56-3.73zm-.114 3.627a8.957 8.957 0 0 0 1.346 3.4l-.021-.034 13.402-8.741c.497.752.86 1.639 1.03 2.593l.006.043-15.763 2.739zm1.325 3.366a9.063 9.063 0 0 0 2.487 2.532l.031.02 8.922-13.283a7.055 7.055 0 0 1 1.945 1.963l.016.026L2.45 14.043zm2.519 2.552a8.991 8.991 0 0 0 3.282 1.36l3.093-15.698a6.985 6.985 0 0 1 2.573 1.072l-.024-.016-8.922 13.28zm3.281 1.36a9.019 9.019 0 0 0 3.541-.011L8.6 2.266a6.98 6.98 0 0 1 2.787 0l-.045-.008-3.091 15.698zm3.541-.011a8.992 8.992 0 0 0 3.304-1.402l-.03.02L6.058 3.34a6.9 6.9 0 0 1 2.497-1.064l.045-.008 3.192 15.677zm3.274-1.382a9.045 9.045 0 0 0 2.481-2.533l.021-.035L4.109 5.341a7.059 7.059 0 0 1 1.927-1.986l.024-.015 9.008 13.222zm2.502-2.568a8.86 8.86 0 0 0 1.295-3.323l.008-.053L3.09 7.984a6.993 6.993 0 0 1 1.036-2.667l-.017.027 13.459 8.651zm1.248-3.08.118-.573L3.262 7.114l-.118.573 15.672 3.227zm.117-.57a3.59 3.59 0 0 1-1.387 2.169l-.01.007L8.133-.426c-2.454 1.795-4.209 4.42-4.856 7.455l-.014.081 15.67 3.232zm-1.397 2.176a3.427 3.427 0 0 1-2.381.645l.014.001 1.557-15.925A12.487 12.487 0 0 0 8.097-.402l.035-.025 9.403 12.944zm-2.366.646a3.475 3.475 0 0 1-2.215-1.108l-.002-.002L24.715 1.21a12.501 12.501 0 0 0-7.935-3.964l-.052-.004-1.557 15.925zm-2.218-1.11A3.596 3.596 0 0 1 12 9.618l16-.04a12.344 12.344 0 0 0-3.292-8.376l.008.008-11.763 10.848zM12 9.6c0-.987.4-1.907 1.069-2.566l11.227 11.398A12.364 12.364 0 0 0 28 9.6H12zm1.069-2.566a3.46 3.46 0 0 1 2.427-1.002l.008 16c3.426 0 6.531-1.374 8.794-3.602l-.002.002-11.229-11.4zm2.432-1.002H.999v16H15.5v-16zM1 6.032a8.977 8.977 0 0 0-6.321 2.59l.001-.001 11.226 11.4a6.967 6.967 0 0 1-4.905 2.011v-16zm-6.32 2.589A8.952 8.952 0 0 0-8 15.016H8a6.997 6.997 0 0 1-2.094 5.002l-.001.001-11.226-11.4zM-8 15.016a8.946 8.946 0 0 0 2.679 6.396l.001.001L5.906 10.011A7.006 7.006 0 0 1 8 15.015v.001H-8zm2.68 6.397A8.976 8.976 0 0 0 .998 24H1V8c1.912 0 3.644.768 4.906 2.012l-.001-.001-11.226 11.402zM1 24h14.501V8H.999v16zm14.693-.003a14.52 14.52 0 0 0 9.982-4.292l.001-.001L14.313 8.44c.253-.261.604-.427.993-.44h.002l.386 15.995zm9.982-4.293a14.305 14.305 0 0 0 4.168-10.098v-.001l-16-.005c0-.458.182-.87.469-1.16l11.363 11.264zm4.168-10.099A14.301 14.301 0 0 0 25.679-.498l.001.001-11.368 11.258a1.642 1.642 0 0 1-.469-1.151v-.009l16 .005zM25.68-.498a14.505 14.505 0 0 0-9.961-4.299h-.018l-.397 15.994a1.443 1.443 0 0 1-.993-.437L25.681-.498zm1.318 4.56h-.007c-3.562 0-6.79 1.428-9.143 3.743l.002-.002 11.226 11.4a2.948 2.948 0 0 1-2.076.859v-16zM17.85 7.803a12.849 12.849 0 0 0-3.851 9.18h16a3.11 3.11 0 0 1-.923 2.219L17.85 7.802zM14 16.984a8.946 8.946 0 0 0 2.679 6.396l.001.001 11.226-11.4A7.003 7.003 0 0 1 30 16.984H14zm2.68 6.397A8.977 8.977 0 0 0 23 25.97v-16c1.912 0 3.644.768 4.906 2.012l-.001-.001-11.226 11.4zM23 25.97a8.977 8.977 0 0 0 6.321-2.59l-.001.001-11.226-11.4a6.967 6.967 0 0 1 4.905-2.011v16zm6.32-2.589A8.95 8.95 0 0 0 32 16.984H16c0-1.958.801-3.729 2.094-5.002l.001-.001 11.226 11.4zM32 16.984c0 1.027-.31 2.019-.875 2.851l-13.237-8.984A10.828 10.828 0 0 0 16 16.984h16zm-.875 2.851a5.01 5.01 0 0 1-2.251 1.829L22.831 6.848a11.064 11.064 0 0 0-4.92 3.966l-.024.037 13.238 8.984zm-2.251 1.829a4.868 4.868 0 0 1-1.871.366c-.338 0-.668-.034-.987-.098l.032.005 3.075-15.701A10.746 10.746 0 0 0 27 6.03c-1.503 0-2.936.3-4.242.844l.073-.027 6.043 14.816zm-2.826.274a4.99 4.99 0 0 1-2.54-1.341l.001.001L34.735 9.196a10.99 10.99 0 0 0-5.541-2.948l-.07-.012-3.075 15.702zm-2.539-1.341a5.063 5.063 0 0 1-1.408-2.605l15.683-3.168a10.963 10.963 0 0 0-3.048-5.627l-.001-.001-11.226 11.402zm-1.408-2.605a5.061 5.061 0 0 1 .309-3.012l-.013.033 14.749 6.205c.54-1.25.854-2.705.854-4.233 0-.765-.079-1.511-.228-2.231l.012.071-15.683 3.168zm.296-2.979a5.065 5.065 0 0 1 1.854-2.244l.018-.012 8.795 13.366a11.032 11.032 0 0 0 4.054-4.834l.027-.071-14.749-6.205zm1.872-2.256a4.926 4.926 0 0 1 2.73-.818H27v16h.002c2.256 0 4.355-.677 6.102-1.84l-.041.025-8.794-13.368zM27 11.939H1v16h26v-16zm-26 0H.998a8.981 8.981 0 0 0-6.319 2.588l.001-.001L5.906 25.928a6.967 6.967 0 0 1-4.905 2.011v-16zm-6.32 2.587A8.947 8.947 0 0 0-8 20.923H8v.001a7.001 7.001 0 0 1-2.094 5.003l-.001.001-11.226-11.402zM-8 20.923a8.946 8.946 0 0 0 2.679 6.396l.001.001L5.906 15.918A7.006 7.006 0 0 1 8 20.922v.001H-8zm2.68 6.397a8.976 8.976 0 0 0 6.318 2.587H1v-16a6.966 6.966 0 0 1 4.906 2.014l-.001-.001-11.226 11.402zM1 29.907h19.501v-16H.999v16zm19.485 0a5.462 5.462 0 0 1-3.844-1.586l11.248-11.379a10.486 10.486 0 0 0-7.373-3.035h-.001l-.032 16zm-3.843-1.585a5.54 5.54 0 0 1-1.648-3.95v-.014.001l16 .032v-.019a10.41 10.41 0 0 0-3.103-7.428l-.001-.001-11.248 11.379zm-1.648-3.964a5.54 5.54 0 0 1 1.663-3.956l.001-.001 11.203 11.424a10.406 10.406 0 0 0 3.134-7.434v-.001l-16-.032zm1.664-3.956a5.463 5.463 0 0 1 3.841-1.571h.008l-.032 16h.026c2.867 0 5.466-1.147 7.363-3.007l-.002.002-11.203-11.424zm3.827-1.572a5.46 5.46 0 0 1 3.485 1.259L13.746 32.398a10.494 10.494 0 0 0 6.739 2.432h.012-.001l-.011-16zm3.485 1.26a5.52 5.52 0 0 1 1.904 3.274l.005.033-15.765 2.725a10.498 10.498 0 0 0 3.615 6.263l.017.014L23.97 20.09zm1.913 3.334-.01-.059-15.776 2.67.011.059 15.776-2.67zm.029.186a8.955 8.955 0 0 0-1.224-3.444l.022.04-13.709 8.251a6.91 6.91 0 0 1-.936-2.628l-.004-.037 15.851-2.181zm-1.202-3.405a9.059 9.059 0 0 0-2.394-2.619l-.025-.018-9.405 12.944a7.07 7.07 0 0 1-1.867-2.025l-.018-.031 13.709-8.251zm-2.419-2.637a8.934 8.934 0 0 0-3.162-1.466l-.062-.013-3.678 15.571a6.991 6.991 0 0 1-2.522-1.162l.02.014 9.405-12.944zm-3.224-1.478a8.77 8.77 0 0 0-2.073-.242c-.514 0-1.019.043-1.509.126l.053-.007 2.586 15.789a6.995 6.995 0 0 1-2.782-.105l.048.01 3.678-15.57zm-3.531-.124a8.988 8.988 0 0 0-3.351 1.27l.037-.022 8.472 13.573a6.878 6.878 0 0 1-2.532.962l-.041.006-2.584-15.787zm-3.314 1.248a9.06 9.06 0 0 0-2.576 2.428l-.019.028 13.088 9.203a7.043 7.043 0 0 1-2.021 1.914l-8.47-13.573zM9.627 19.67a8.88 8.88 0 0 0-1.429 3.246l-.011.059 15.654 3.312a7.023 7.023 0 0 1-1.141 2.607l.015-.022-13.088-9.203zm-1.44 3.306a9.037 9.037 0 0 0-.009 3.679l-.01-.058 15.688-3.147a7.1 7.1 0 0 1-.024 2.884l.009-.046-15.65-3.31zm-.064 3.382.011.059 15.776-2.672-.01-.058-15.776 2.67zm.015.072a12.469 12.469 0 0 0 4.288 7.448l.02.016 10.238-12.296a3.553 3.553 0 0 1 1.224 2.134L8.14 26.431zm4.307 7.464a12.499 12.499 0 0 0 8.038 2.906h.009l-.003-16c.787 0 1.566.272 2.197.798L12.448 33.894zm8.041 2.906h.011c3.422 0 6.524-1.37 8.787-3.592l-.002.002-11.213-11.413a3.446 3.446 0 0 1 2.42-.997l-.006 16zm8.797-3.59A12.367 12.367 0 0 0 33 24.386v-.002l-16-.029a3.6 3.6 0 0 1 1.069-2.56l11.214 11.414zM33 24.37c0-2.576-.797-4.981-2.142-6.96l-13.232 8.997A3.61 3.61 0 0 1 17 24.37h16zm-8.758 5.537H27v-16h-2.758v16zm2.758 0h.007c3.562 0 6.79-1.428 9.143-3.743l-.002.002-11.226-11.402a2.953 2.953 0 0 1 2.076-.858v16zm9.149-3.741A12.843 12.843 0 0 0 40 16.984H24c0-.856.347-1.651.923-2.219l11.226 11.402zM40 16.984c0-3.467-1.4-6.768-3.851-9.181l-11.226 11.4A3.107 3.107 0 0 1 24 16.99v-.006h16zm-3.851-9.181a12.996 12.996 0 0 0-9.143-3.742H27v16a2.95 2.95 0 0 1-2.077-.858l11.226-11.4z"/></symbol><symbol id="icon-alcove" viewBox="0 0 46 32"><path d="M2.608 1.8h12.41a.393.393 0 0 0 .277-.113L16.487.526A1.84 1.84 0 0 1 17.777 0H36.613c.894 0 1.683.446 2.158 1.127l.006.009 2.255 3.301c.32.469.35 1.067.078 1.563a1.57 1.57 0 0 1-1.368.805h-9.707v.957H35.023a3.28 3.28 0 0 1 2.988 1.925l.008.021 2.909 6.649 2.549.994c1.36.531 2.239 1.798 2.239 3.227v6.158c0 .919-.766 1.666-1.707 1.666h-2.965c-.344 2.038-2.162 3.599-4.35 3.599s-4.007-1.561-4.35-3.6H16.141c-.345 2.04-2.165 3.6-4.351 3.6-2.185 0-4.005-1.561-4.35-3.6H1.52c-.839 0-1.519-.663-1.519-1.479V4.344C.001 2.941 1.17 1.8 2.609 1.8zm34.085 28.794c1.637 0 2.969-1.299 2.969-2.897 0-1.597-1.333-2.896-2.969-2.896-1.638 0-2.969 1.299-2.969 2.896 0 1.598 1.331 2.897 2.969 2.897zm-6.659-3.6h2.307l.019-.104.014-.071c.011-.055.025-.11.039-.165l.009-.034a2.842 2.842 0 0 1 .075-.25c.034-.102.059-.171.086-.238l-.011.032.047-.114.034-.075.049-.109.038-.075.055-.103.04-.074.059-.101.043-.071.066-.101.045-.065c.025-.035.05-.071.078-.105l.04-.055a5.31 5.31 0 0 1 .261-.308l-.003.004.042-.043.096-.099.057-.053c.075-.072.153-.142.234-.209l.007-.005.066-.051c.042-.034.094-.074.148-.113l.013-.009.097-.067.069-.046c.034-.023.069-.043.104-.065l.069-.041c.038-.023.077-.043.115-.065l.059-.034c.025-.015.081-.043.137-.069l.032-.014.013-.006c.062-.03.123-.057.186-.082.019-.009.041-.016.061-.024l.13-.05.074-.026a4.08 4.08 0 0 1 .493-.138l.03-.006.087-.018c.087-.018.201-.036.317-.049l.019-.002.082-.009.143-.011c.023 0 .047-.003.071-.003a3.612 3.612 0 0 1 .442 0h-.01c.023 0 .046.002.071.005.047.002.095.006.143.011.027.001.055.006.082.008.164.018.308.042.449.074l-.026-.005c.208.044.383.093.554.153l-.03-.009.074.026.13.05.061.023c.063.026.126.054.186.083l.013.006c.057.027.113.055.168.085l.059.033c.04.021.079.042.117.065l.069.041.103.065.07.046.097.069c.064.045.116.085.167.126l-.006-.005.066.051c.089.075.167.145.244.218l-.003-.003.057.053.096.099.042.043c.046.048.089.098.131.149l.017.021c.037.045.073.088.109.135l.04.055.078.105.045.065.066.101.043.071.058.101.041.074.055.103.038.075c.017.037.034.072.049.109l.034.074c.02.043.045.105.068.168l.006.02.047.134.019.057c.019.064.039.128.057.194l.008.034c.014.054.026.109.038.163l.015.071.019.104h2.966a.263.263 0 0 0 .263-.259v-2.946h-1.125v-1.406h1.125v-1.806a2.06 2.06 0 0 0-1.334-1.922l-2.697-1.051H30.031V27zm0-10.797h9.257l-2.598-5.939a1.843 1.843 0 0 0-1.68-1.09h-4.979v7.03zM11.789 30.594c1.638 0 2.969-1.299 2.969-2.897 0-1.597-1.331-2.896-2.969-2.896-.051 0-.102.001-.152.005-1.365.067-2.488 1.038-2.757 2.309a2.897 2.897 0 0 0-.056.426v.008a2.73 2.73 0 0 0-.003.133v.016-.001c0 1.598 1.331 2.897 2.968 2.897zM1.441 22.383h1.125v1.406H1.44v3.131c0 .041.034.074.077.074h5.92l.021-.103c.005-.024.008-.049.014-.073.011-.054.023-.107.038-.16l.009-.038c.017-.065.037-.129.057-.194l.019-.057.046-.133.029-.072c.041-.106.068-.169.096-.231l-.016.04.049-.106c.011-.026.025-.051.039-.077l.053-.103.042-.074c.081-.139.151-.249.225-.356l-.013.019.077-.104.042-.057c.034-.045.069-.088.106-.131l.018-.023c.043-.05.087-.101.131-.149l.043-.046.096-.097.057-.054.088-.083.063-.054.09-.075.066-.054c.039-.032.092-.071.144-.11l.016-.011c.032-.023.064-.046.097-.066l.069-.047.103-.065.069-.041.117-.065.061-.034c.055-.029.111-.056.167-.082.005-.002.009-.006.015-.007.061-.03.123-.057.185-.082l.191-.074.075-.026c.012-.005.052-.019.092-.031l.028-.008c.101-.033.236-.069.374-.099l.03-.005.086-.019c.087-.018.201-.036.317-.049l.019-.002.082-.009.144-.011c.023 0 .046-.003.07-.003a3.612 3.612 0 0 1 .442 0h-.01c.024 0 .047.002.071.005.048.002.096.006.143.011.027.001.055.006.082.008a4.1 4.1 0 0 1 .239.033l-.024-.003.121.021.087.018c.138.029.246.056.352.088l-.031-.008.082.025c.04.011.08.025.119.039l.075.026.13.05.061.023c.153.064.274.122.391.186l-.024-.012.061.033.117.065.069.041.103.065.07.046.096.069c.062.043.114.083.165.124l-.005-.004.067.054c.031.024.061.05.09.075l.062.054.146.137.096.098.042.046c.085.092.169.191.249.293l.008.01.041.055c.026.034.053.07.077.105l.045.066c.051.073.107.161.159.252l.01.019.041.074.054.103.038.075.05.109.033.074c.017.039.032.078.047.117l.027.071c.017.045.032.089.047.135l.019.055c.021.064.039.13.057.194l.007.032c.015.055.027.111.04.167l.013.069.022.106h12.453V6.106c0-.389.322-.704.72-.704h10.419c.017 0 .072 0 .106-.063a.104.104 0 0 0-.007-.12L37.579 1.92a1.183 1.183 0 0 0-.972-.511H17.784a.393.393 0 0 0-.277.113l-1.192 1.162a1.84 1.84 0 0 1-1.289.525H2.596c-.632 0-1.145.508-1.154 1.137v18.04z"/><path d="M20.115 7.198h4.559c.92 0 1.67.731 1.67 1.63v15.046a.71.71 0 0 1-.72.703h-6.465a.712.712 0 0 1-.712-.702V8.829c0-.899.747-1.63 1.669-1.63zm-.228 15.971h5.016v-8.266h-5.017v8.266zm0-9.672h5.016V8.826a.226.226 0 0 0-.226-.224H20.115a.227.227 0 0 0-.229.224v4.669h.001zM5.536 7.198h8.814c1.019 0 1.848.809 1.848 1.802v4.101c0 .994-.83 1.802-1.848 1.802H5.535c-1.018 0-1.847-.808-1.847-1.802V9c0-.994.829-1.802 1.848-1.802zm-.407 5.903c0 .217.183.397.407.397h8.819c.22 0 .399-.177.402-.396V9.001a.403.403 0 0 0-.407-.397H5.532A.402.402 0 0 0 5.13 9v4.101z"/></symbol><symbol id="icon-bed" viewBox="0 0 32 32"><path stroke-linecap="round" stroke-linejoin="round" stroke-width="2.24" d="M3 26v-7a4.01 4.01 0 0 1 3.999-4H25a4.01 4.01 0 0 1 4 3.999V26m-5-11H6V8.499A2.507 2.507 0 0 1 8.5 6h15a2.507 2.507 0 0 1 2.499 2.5V15h-2z"/><path stroke-linecap="round" stroke-linejoin="round" stroke-width="2.24" d="M3 26v-.501A1.504 1.504 0 0 1 4.501 24H27.5a1.505 1.505 0 0 1 1.501 1.501V26M7 15v-1a2.007 2.007 0 0 1 2-2h5a2.007 2.007 0 0 1 2 2m0 0v1m0-1a2.006 2.006 0 0 1 2-2h5a2.007 2.007 0 0 1 2 2v1"/></symbol><symbol id="icon-calendar" viewBox="0 0 32 32"><path stroke-linecap="round" stroke-linejoin="round" stroke-width="2.4" d="M25.333 5.333H6.667A2.668 2.668 0 0 0 4 8v18.667a2.667 2.667 0 0 0 2.667 2.666h18.666A2.667 2.667 0 0 0 28 26.667V8a2.668 2.668 0 0 0-2.667-2.667zm-4-2.666V8M10.667 2.667V8M4 13.333h24"/></symbol><symbol id="icon-cd" viewBox="0 0 32 32"><path stroke-width="2.4" d="M16 28c6.627 0 12-5.373 12-12S22.627 4 16 4 4 9.373 4 16s5.373 12 12 12z"/><path stroke-linecap="round" stroke-width="2.4" d="M8.667 16A7.333 7.333 0 0 1 16 8.667"/><path stroke-width="2.4" d="M16 19.333a3.333 3.333 0 1 0 0-6.666 3.333 3.333 0 1 0 0 6.666z"/></symbol><symbol id="icon-close" viewBox="0 0 32 32"><path stroke-linecap="round" stroke-linejoin="round" stroke-width="3" d="M24 8 8 24M8 8l16 16"/></symbol><symbol id="icon-freezer" viewBox="0 0 32 32"><path stroke-linecap="round" stroke-linejoin="round" stroke-width="2.08" d="M23.4 3H8.606a2 2 0 0 0-2 2v20.387a2 2 0 0 0 2 2H23.4a2 2 0 0 0 2-2V5a2 2 0 0 0-2-2z"/><path stroke-linecap="round" stroke-linejoin="round" stroke-width="2.08" d="M6.608 13.126h18.784m-15.078-2.56V6.528m0 12.914V15.4M8.426 27.387v.701c0 .502.406.909.907.912h1.648a.912.912 0 0 0 .912-.912v-.701m8.208 0v.701c0 .504.408.912.912.912h1.654a.912.912 0 0 0 .912-.912v-.701"/></symbol><symbol id="icon-fully" viewBox="0 0 46 32"><path d="M2.608 1.8h12.41a.393.393 0 0 0 .277-.113L16.487.526A1.84 1.84 0 0 1 17.777 0H36.613c.894 0 1.683.446 2.158 1.127l.006.009 2.255 3.301c.32.469.35 1.067.078 1.563a1.57 1.57 0 0 1-1.368.805h-9.707v.957H35.023a3.28 3.28 0 0 1 2.988 1.925l.008.021 2.909 6.649 2.549.994c1.36.531 2.239 1.798 2.239 3.227v6.158c0 .919-.766 1.666-1.707 1.666h-2.965c-.344 2.038-2.162 3.599-4.35 3.599s-4.007-1.561-4.35-3.6H16.141c-.345 2.04-2.165 3.6-4.351 3.6-2.185 0-4.005-1.561-4.35-3.6H1.52c-.839 0-1.519-.663-1.519-1.479V4.344C.001 2.941 1.17 1.8 2.609 1.8zm34.085 28.794c1.637 0 2.969-1.299 2.969-2.897 0-1.597-1.333-2.896-2.969-2.896-1.638 0-2.969 1.299-2.969 2.896 0 1.598 1.331 2.897 2.969 2.897zm-6.659-3.6h2.307l.019-.104.014-.071c.011-.055.025-.11.039-.165l.009-.034a2.842 2.842 0 0 1 .075-.25c.034-.102.059-.171.086-.238l-.011.032.047-.114.034-.075.049-.109.038-.075.055-.103.04-.074.059-.101.043-.071.066-.101.045-.065c.025-.035.05-.071.078-.105l.04-.055a5.31 5.31 0 0 1 .261-.308l-.003.004.042-.043.096-.099.057-.053c.075-.072.153-.142.234-.209l.007-.005.066-.051c.042-.034.094-.074.148-.113l.013-.009.097-.067.069-.046c.034-.023.069-.043.104-.065l.069-.041c.038-.023.077-.043.115-.065l.059-.034c.025-.015.081-.043.137-.069l.032-.014.013-.006c.062-.03.123-.057.186-.082.019-.009.041-.016.061-.024l.13-.05.074-.026a4.08 4.08 0 0 1 .493-.138l.03-.006.087-.018c.087-.018.201-.036.317-.049l.019-.002.082-.009.143-.011c.023 0 .047-.003.071-.003a3.612 3.612 0 0 1 .442 0h-.01c.023 0 .046.002.071.005.047.002.095.006.143.011.027.001.055.006.082.008.164.018.308.042.449.074l-.026-.005c.208.044.383.093.554.153l-.03-.009.074.026.13.05.061.023c.063.026.126.054.186.083l.013.006c.057.027.113.055.168.085l.059.033c.04.021.079.042.117.065l.069.041.103.065.07.046.097.069c.064.045.116.085.167.126l-.006-.005.066.051c.089.075.167.145.244.218l-.003-.003.057.053.096.099.042.043c.046.048.089.098.131.149l.017.021c.037.045.073.088.109.135l.04.055.078.105.045.065.066.101.043.071.058.101.041.074.055.103.038.075c.017.037.034.072.049.109l.034.074c.02.043.045.105.068.168l.006.02.047.134.019.057c.019.064.039.128.057.194l.008.034c.014.054.026.109.038.163l.015.071.019.104h2.966a.263.263 0 0 0 .263-.259v-2.946h-1.125v-1.406h1.125v-1.806a2.06 2.06 0 0 0-1.334-1.922l-2.697-1.051H30.031V27zm0-10.797h9.257l-2.598-5.939a1.843 1.843 0 0 0-1.68-1.09h-4.979v7.03zM11.789 30.594c1.638 0 2.969-1.299 2.969-2.897 0-1.597-1.331-2.896-2.969-2.896-.051 0-.102.001-.152.005-1.365.067-2.488 1.038-2.757 2.309a2.897 2.897 0 0 0-.056.426v.008a2.73 2.73 0 0 0-.003.133v.016-.001c0 1.598 1.331 2.897 2.968 2.897zM1.441 22.383h1.125v1.406H1.44v3.131c0 .041.034.074.077.074h5.92l.021-.103c.005-.024.008-.049.014-.073.011-.054.023-.107.038-.16l.009-.038c.017-.065.037-.129.057-.194l.019-.057.046-.133.029-.072c.041-.106.068-.169.096-.231l-.016.04.049-.106c.011-.026.025-.051.039-.077l.053-.103.042-.074c.081-.139.151-.249.225-.356l-.013.019.077-.104.042-.057c.034-.045.069-.088.106-.131l.018-.023c.043-.05.087-.101.131-.149l.043-.046.096-.097.057-.054.088-.083.063-.054.09-.075.066-.054c.039-.032.092-.071.144-.11l.016-.011c.032-.023.064-.046.097-.066l.069-.047.103-.065.069-.041.117-.065.061-.034c.055-.029.111-.056.167-.082.005-.002.009-.006.015-.007.061-.03.123-.057.185-.082l.191-.074.075-.026c.012-.005.052-.019.092-.031l.028-.008c.101-.033.236-.069.374-.099l.03-.005.086-.019c.087-.018.201-.036.317-.049l.019-.002.082-.009.144-.011c.023 0 .046-.003.07-.003a3.612 3.612 0 0 1 .442 0h-.01c.024 0 .047.002.071.005.048.002.096.006.143.011.027.001.055.006.082.008a4.1 4.1 0 0 1 .239.033l-.024-.003.121.021.087.018c.138.029.246.056.352.088l-.031-.008.082.025c.04.011.08.025.119.039l.075.026.13.05.061.023c.153.064.274.122.391.186l-.024-.012.061.033.117.065.069.041.103.065.07.046.096.069c.062.043.114.083.165.124l-.005-.004.067.054c.031.024.061.05.09.075l.062.054.146.137.096.098.042.046c.085.092.169.191.249.293l.008.01.041.055c.026.034.053.07.077.105l.045.066c.051.073.107.161.159.252l.01.019.041.074.054.103.038.075.05.109.033.074c.017.039.032.078.047.117l.027.071c.017.045.032.089.047.135l.019.055c.021.064.039.13.057.194l.007.032c.015.055.027.111.04.167l.013.069.022.106h12.453V6.106c0-.389.322-.704.72-.704h10.419c.017 0 .072 0 .106-.063a.104.104 0 0 0-.007-.12L37.579 1.92a1.183 1.183 0 0 0-.972-.511H17.784a.393.393 0 0 0-.277.113l-1.192 1.162a1.84 1.84 0 0 1-1.289.525H2.596c-.632 0-1.145.508-1.154 1.137v18.04z"/><path d="M20.115 7.198h4.559c.92 0 1.67.731 1.67 1.63v15.046a.71.71 0 0 1-.72.703h-6.465a.712.712 0 0 1-.712-.702V8.829c0-.899.747-1.63 1.669-1.63zm-.228 15.971h5.016v-8.266h-5.017v8.266zm0-9.672h5.016V8.826a.226.226 0 0 0-.226-.224H20.115a.227.227 0 0 0-.229.224l.001 4.669z"/></symbol><symbol id="icon-gas" viewBox="0 0 32 32"><path d="M25.072 13.992c-.368-.454-.816-.848-1.232-1.24-1.072-.906-2.288-1.557-3.312-2.509-2.384-2.206-2.912-5.848-1.392-8.643-1.52.347-2.848 1.133-3.982 1.995-4.144 3.142-5.776 8.688-3.824 13.448.064.152.128.304.128.499 0 .333-.24.635-.56.755-.368.152-.752.061-1.056-.181a.89.89 0 0 1-.222-.252l-.002-.004c-1.808-2.162-2.096-5.259-.88-7.738-2.67 2.054-4.126 5.531-3.918 8.81.096.755.192 1.512.464 2.267.224.906.656 1.813 1.136 2.614 1.728 2.614 4.72 4.488 7.936 4.864 3.422.41 7.085-.179 9.709-2.416 2.928-2.509 3.952-6.528 2.448-9.974l-.208-.392c-.336-.696-1.232-1.904-1.232-1.904zm-5.056 9.52c-.448.362-1.184.755-1.76.906-1.792.605-3.582-.24-4.638-1.238 1.904-.422 3.04-1.752 3.376-3.098.272-1.21-.24-2.206-.448-3.37-.192-1.12-.16-2.07.272-3.114.304.574.624 1.149 1.008 1.602 1.232 1.512 3.168 2.176 3.584 4.232a2.2 2.2 0 0 1 .096.65c.048 1.238-.528 2.598-1.488 3.43z"/></symbol><symbol id="icon-heart-active" viewBox="0 0 32 32"><path fill="#e44848" stroke="#e44848" stroke-linecap="round" stroke-linejoin="round" stroke-width="3.067" d="M27.787 6.147C26.46 4.819 24.626 3.998 22.6 3.998s-3.859.821-5.187 2.149L16 7.56l-1.413-1.413A7.335 7.335 0 0 0 4.213 16.521L16 28.308l11.787-11.787c1.328-1.327 2.149-3.161 2.149-5.187s-.821-3.859-2.149-5.187h0z" style="fill:var(--color1, #e44848);stroke:var(--color1, #e44848)"/></symbol><symbol id="icon-heart" viewBox="0 0 32 32"><path stroke-linecap="round" stroke-linejoin="round" stroke-width="3.067" d="M27.787 6.147C26.46 4.819 24.626 3.998 22.6 3.998s-3.859.821-5.187 2.149L16 7.56l-1.413-1.413A7.335 7.335 0 0 0 4.213 16.521L16 28.308l11.787-11.787c1.328-1.327 2.149-3.161 2.149-5.187s-.821-3.859-2.149-5.187z"/></symbol><symbol id="icon-hob" viewBox="0 0 32 32"><path fill="none" stroke="#101828" stroke-width="2.4" d="M12 6.667h16c.736 0 1.333.597 1.333 1.333V25.335c0 .736-.597 1.333-1.333 1.333H12m0-20.001H4c-.736 0-1.333.597-1.333 1.333V25.335c0 .736.597 1.333 1.333 1.333h8m0-20.001v20" style="stroke:var(--color2, #101828)"/><path fill="none" stroke="#101828" stroke-linecap="round" stroke-linejoin="round" stroke-width="2.4" d="M7.333 11.333V14m17.334-3.333-8 11.333" style="stroke:var(--color2, #101828)"/><path d="M8.667 18a1.334 1.334 0 1 0-2.668 0 1.334 1.334 0 1 0 2.668 0zm0 4a1.334 1.334 0 1 0-2.668 0 1.334 1.334 0 1 0 2.668 0z"/></symbol><symbol id="icon-kitchen" viewBox="0 0 32 32"><path stroke-linecap="round" stroke-linejoin="round" stroke-width="2.4" d="M25.333 20V4c-6.421 6.125-6.696 11.091-6.666 16h6.666zm0 0v8H24v-4M10.667 5.333V28m-4-22.667v4a4 4 0 0 0 8 0v-4"/></symbol><symbol id="icon-location" viewBox="0 0 29 32"><path stroke-linecap="round" stroke-linejoin="round" stroke-width="2.4" d="M26.4 13.333c0 9.334-12 17.334-12 17.334s-12-8-12-17.334c0-6.627 5.373-12 12-12s12 5.373 12 12z"/><path stroke-linecap="round" stroke-linejoin="round" stroke-width="2.4" d="M14.4 17.333a4 4 0 0 0 0-8 4 4 0 0 0 0 8z"/></symbol><symbol id="icon-microwave" viewBox="0 0 32 32"><path stroke-linecap="round" stroke-linejoin="round" stroke-width="2.24" d="M29.714 5.714H2.286c-.631 0-1.142.511-1.142 1.142V25.145c0 .631.511 1.142 1.142 1.142H29.714c.631 0 1.142-.511 1.142-1.142V6.858c0-.632-.512-1.144-1.144-1.144z"/><path stroke-linecap="round" stroke-linejoin="round" stroke-width="2.24" d="M25.142 11.429h1.144M25.142 16h1.144m-6.857-5.714H6.856c-.631 0-1.142.511-1.142 1.142v9.142a1.144 1.144 0 0 0 1.144 1.142h12.571c.631 0 1.142-.511 1.142-1.142v-9.142c0-.631-.511-1.142-1.142-1.142z"/></symbol><symbol id="icon-people" viewBox="0 0 32 32"><path d="M9.067 24.133h-4.4c-.267 0-.4-.133-.534-.266-.133-.134-.266-.4-.133-.667.8-2.267 2.8-3.6 5.067-3.6 2.8 0 5.066-2.4 5.066-5.2s-2.266-5.467-5.066-5.467S4 11.333 4 14.267c0 1.333.533 2.666 1.333 3.6-1.733.933-3.066 2.4-3.866 4.4a3.668 3.668 0 0 0 .54 3.078l-.008-.012c.667.934 1.6 1.467 2.667 1.467h4.4c.8 0 1.333-.533 1.333-1.333s-.533-1.334-1.333-1.334zm-2.4-9.866c0-1.467 1.066-2.534 2.4-2.534 1.333 0 2.4 1.2 2.4 2.534 0 1.466-1.067 2.533-2.4 2.533-1.334 0-2.4-1.2-2.4-2.533z"/><path d="M30.533 21.467c-.914-2.407-2.658-4.325-4.875-5.441L25.601 16c1.2-1.067 1.867-2.667 1.867-4.533C27.468 8 24.801 5.2 21.601 5.2s-5.867 2.8-5.867 6.267A6.35 6.35 0 0 0 17.601 16c-2.274 1.142-4.019 3.06-4.91 5.399l-.023.069c-.667 1.2-.4 2.533.266 3.6.667 1.066 1.867 1.6 3.067 1.6h11.067c1.2 0 2.4-.667 3.066-1.6.8-1.067.934-2.4.4-3.6zM18.267 11.6c0-2 1.466-3.6 3.2-3.6 1.733 0 3.2 1.6 3.2 3.6s-1.467 3.6-3.2 3.6c-1.734 0-3.2-1.733-3.2-3.6zm9.6 12c-.134.133-.4.533-.8.533H16c-.533 0-.8-.4-.8-.533a1.13 1.13 0 0 1-.13-1.207l-.003.007c1.066-2.8 3.733-4.667 6.533-4.667s5.467 1.867 6.533 4.667c.134.533-.133 1.067-.266 1.2z"/></symbol><symbol id="icon-petrol" viewBox="0 0 32 32"><path d="m26.36 9.64.013-.013-4.96-4.96L20 6.08l2.813 2.813a3.33 3.33 0 0 0-2.148 3.109c0 .92.374 1.753.979 2.355a3.335 3.335 0 0 0 3.711.688l-.021.008v9.614a1.333 1.333 0 0 1-2.666 0v-6.002a2.666 2.666 0 0 0-2.666-2.666h-1.335V6.666A2.667 2.667 0 0 0 16 3.999H8a2.667 2.667 0 0 0-2.667 2.667v21.333h13.334v-10h2v6.667a3.333 3.333 0 1 0 6.666 0V11.999c0-.92-.373-1.76-.973-2.36zM16 18v7.333H8V16h8v2zm0-4.667H8V6.667h8v6.666zm8 0a1.333 1.333 0 0 1 0-2.666 1.333 1.333 0 0 1 0 2.666z"/></symbol><symbol id="icon-radio" viewBox="0 0 32 32"><path stroke-width="2.08" d="M2.667 18.667c0-5.029 0-7.544 1.562-9.104C5.792 8 8.306 8 13.333 8h5.334c5.027 0 7.542 0 9.104 1.563 1.562 1.56 1.562 4.075 1.562 9.104 0 5.027 0 7.542-1.562 9.104s-4.077 1.562-9.104 1.562h-5.334c-5.027 0-7.542 0-9.104-1.562s-1.562-4.077-1.562-9.104z"/><path stroke-width="2.08" d="M6.667 14.667A2.667 2.667 0 0 1 9.333 12h13.335a2.666 2.666 0 1 1 0 5.332H9.334a2.668 2.668 0 0 1-2.666-2.665zm5.333 8a2 2 0 1 1-4 0 2 2 0 1 1 4 0z"/><path stroke-linecap="round" stroke-width="2.08" d="M20 15.333v2m-2.667 5.334H24M8.667 8 20 2.667"/></symbol><symbol id="icon-route" viewBox="0 0 32 32"><path d="m6.667 4-.065-.001a2.667 2.667 0 1 0 0 5.334l.069-.001h-.003A2.668 2.668 0 0 0 6.672 4h-.003zM1.333 6.667a5.334 5.334 0 1 1 10.668 0 5.334 5.334 0 1 1-10.668 0zm24 16-.065-.001a2.667 2.667 0 1 0 0 5.334l.069-.001h-.003a2.668 2.668 0 0 0 .003-5.332h-.003zM20 25.333a5.334 5.334 0 1 1 10.668 0 5.334 5.334 0 1 1-10.668 0z"/><path d="M13.333 6.667c0-.736.597-1.334 1.334-1.334h8.4c4.13 0 5.619 5.405 1.987 7.429L9.582 21.567a1.296 1.296 0 0 0 .618 2.435l.069-.002h-.003 7.066a1.334 1.334 0 1 1 0 2.668h-7.064c-4.131 0-5.619-5.405-1.987-7.429l15.472-8.805a1.296 1.296 0 0 0-.618-2.435l-.07.002h.003H14.666a1.333 1.333 0 0 1-1.333-1.333z"/></symbol><symbol id="icon-shower" viewBox="0 0 32 32"><path stroke-linecap="round" stroke-linejoin="round" stroke-width="2" d="m5.333 5.333 3.334 3.334m9.333 0a6.6 6.6 0 0 0-9.332 9.334L8.667 18M20 6.667 6.667 20m12 2.667v.013m-5.334-1.347v.014m4-4.014v.014m4-4.014v.014m-6.666 13.32v.013m8-8.013v.013m4-4.013v.013"/></symbol><symbol id="icon-star-active" viewBox="0 0 32 32"><path fill="#ffc531" stroke="#ffc531" stroke-width="2.4" d="M12.4 9.394 16 2.572l3.6 6.822c.318.604.9 1.024 1.57 1.14l7.6 1.316-5.376 5.532a2.192 2.192 0 0 0-.598 1.858l-.001-.012 1.1 7.636-6.924-3.404c-.283-.142-.617-.225-.97-.225s-.687.083-.983.231l.013-.006-6.924 3.404 1.1-7.636a2.191 2.191 0 0 0-.601-1.847h.001l-5.378-5.532 7.6-1.314a2.206 2.206 0 0 0 1.566-1.13l.006-.012z" style="fill:var(--color3, #ffc531);stroke:var(--color3, #ffc531)"/></symbol><symbol id="icon-star" viewBox="0 0 32 32"><path fill="#f2f4f7" stroke="#f2f4f7" stroke-width="2.4" d="M12.4 9.394 16 2.572l3.6 6.822c.318.604.9 1.024 1.57 1.14l7.6 1.316-5.376 5.532a2.192 2.192 0 0 0-.598 1.858l-.001-.012 1.1 7.636-6.924-3.404c-.283-.142-.617-.225-.97-.225s-.687.083-.983.231l.013-.006-6.924 3.404 1.1-7.636a2.191 2.191 0 0 0-.601-1.847h.001l-5.378-5.532 7.6-1.314a2.206 2.206 0 0 0 1.566-1.13l.006-.012z" style="fill:var(--color4, #f2f4f7);stroke:var(--color4, #f2f4f7)"/></symbol><symbol id="icon-toilet-paper" viewBox="0 0 32 32"><path d="M24 4c1.939 0 3.269 1.648 4.04 3.312.762 1.654 1.224 3.811 1.286 6.147l.006.541v12.67c0 .735-.596 1.331-1.331 1.331L27.944 28h.003l-.166-.019L24 27.352l-3.781.629a1.357 1.357 0 0 1-.492-.01l.009.002-.157-.042L16 26.739l-3.579 1.192a1.334 1.334 0 0 1-1.744-1.099l-.001-.006-.01-.16v-3.902c-.709.734-1.595 1.237-2.667 1.237-1.939 0-3.269-1.648-4.04-3.312-.819-1.781-1.293-4.147-1.293-6.688s.472-4.907 1.293-6.688c.736-1.59 1.981-3.163 3.779-3.301l.261-.011h16zm0 2.667H11.709c.12.213.23.429.33.646.821 1.779 1.296 4.144 1.296 6.686v10.816l2.245-.747a1.328 1.328 0 0 1 .851.003l-.009-.003 3.688 1.229 3.672-.613a1.419 1.419 0 0 1 .446.001l-.008-.001 2.448.408V13.999c0-2.245-.424-4.213-1.05-5.568-.677-1.472-1.347-1.765-1.618-1.765zm-16 0c-.272 0-.941.293-1.616 1.763-.629 1.357-1.051 3.325-1.051 5.57s.422 4.213 1.05 5.568c.677 1.472 1.347 1.765 1.618 1.765.272 0 .939-.293 1.616-1.763.627-1.357 1.051-3.325 1.051-5.57s-.424-4.213-1.05-5.568C8.94 6.96 8.271 6.666 8 6.666zm0 4.666c.736 0 1.333 1.194 1.333 2.667 0 1.472-.597 2.667-1.333 2.667S6.667 15.473 6.667 14c0-1.472.597-2.667 1.333-2.667z"/></symbol><symbol id="icon-transmission" viewBox="0 0 32 32"><path stroke-linecap="round" stroke-linejoin="round" stroke-width="2.4" d="M22.667 14.667h2a2 2 0 1 0 0-4h-2v6.666m0 5.334V28H24a2.666 2.666 0 1 0 0-5.332h-1.333zM4 6.667l-.001.065a2.667 2.667 0 1 0 5.334 0l-.001-.069v.003A2.668 2.668 0 0 0 4 6.662v.003z"/><path stroke-linecap="round" stroke-linejoin="round" stroke-width="2.4" d="M6.667 9.333v4.002c0 .736.597 1.333 1.333 1.333h4m0-.001V24c0 .736.597 1.333 1.333 1.333h4M12 14.667h5.333"/></symbol><symbol id="icon-tv" viewBox="0 0 32 32"><path stroke-linecap="round" stroke-linejoin="round" stroke-width="1.8" d="M24 26H8c-2.216 0-4-1.784-4-4V12c0-2.216 1.784-4 4-4h16c2.216 0 4 1.784 4 4v10c0 2.216-1.784 4-4 4zm-12 4h8M16 8l6-6m-6 6-6-6"/></symbol><symbol id="icon-van" viewBox="0 0 46 32"><path d="M2.608 1.8h12.41a.393.393 0 0 0 .277-.113L16.487.526A1.84 1.84 0 0 1 17.777 0H36.613c.894 0 1.683.446 2.158 1.127l.006.009 2.255 3.301c.32.469.35 1.067.078 1.563a1.57 1.57 0 0 1-1.368.805h-9.707v.957H35.023a3.28 3.28 0 0 1 2.988 1.925l.008.021 2.909 6.649 2.549.994c1.36.531 2.239 1.798 2.239 3.227v6.158c0 .919-.766 1.666-1.707 1.666h-2.965c-.344 2.038-2.162 3.599-4.35 3.599s-4.007-1.561-4.35-3.6H16.141c-.345 2.04-2.165 3.6-4.351 3.6-2.185 0-4.005-1.561-4.35-3.6H1.52c-.839 0-1.519-.663-1.519-1.479V4.344C.001 2.941 1.17 1.8 2.609 1.8zm34.085 28.794c1.637 0 2.969-1.299 2.969-2.897 0-1.597-1.333-2.896-2.969-2.896-1.638 0-2.969 1.299-2.969 2.896 0 1.598 1.331 2.897 2.969 2.897zm-6.659-3.6h2.307l.019-.104.014-.071c.011-.055.025-.11.039-.165l.009-.034a2.842 2.842 0 0 1 .075-.25c.034-.102.059-.171.086-.238l-.011.032.047-.114.034-.075.049-.109.038-.075.055-.103.04-.074.059-.101.043-.071.066-.101.045-.065c.025-.035.05-.071.078-.105l.04-.055a5.31 5.31 0 0 1 .261-.308l-.003.004.042-.043.096-.099.057-.053c.075-.072.153-.142.234-.209l.007-.005.066-.051c.042-.034.094-.074.148-.113l.013-.009.097-.067.069-.046c.034-.023.069-.043.104-.065l.069-.041c.038-.023.077-.043.115-.065l.059-.034c.025-.015.081-.043.137-.069l.032-.014.013-.006c.062-.03.123-.057.186-.082.019-.009.041-.016.061-.024l.13-.05.074-.026a4.08 4.08 0 0 1 .493-.138l.03-.006.087-.018c.087-.018.201-.036.317-.049l.019-.002.082-.009.143-.011c.023 0 .047-.003.071-.003a3.612 3.612 0 0 1 .442 0h-.01c.023 0 .046.002.071.005.047.002.095.006.143.011.027.001.055.006.082.008.164.018.308.042.449.074l-.026-.005c.208.044.383.093.554.153l-.03-.009.074.026.13.05.061.023c.063.026.126.054.186.083l.013.006c.057.027.113.055.168.085l.059.033c.04.021.079.042.117.065l.069.041.103.065.07.046.097.069c.064.045.116.085.167.126l-.006-.005.066.051c.089.075.167.145.244.218l-.003-.003.057.053.096.099.042.043c.046.048.089.098.131.149l.017.021c.037.045.073.088.109.135l.04.055.078.105.045.065.066.101.043.071.058.101.041.074.055.103.038.075c.017.037.034.072.049.109l.034.074c.02.043.045.105.068.168l.006.02.047.134.019.057c.019.064.039.128.057.194l.008.034c.014.054.026.109.038.163l.015.071.019.104h2.966a.263.263 0 0 0 .263-.259v-2.946h-1.125v-1.406h1.125v-1.806a2.06 2.06 0 0 0-1.334-1.922l-2.697-1.051H30.031V27zm0-10.797h9.257l-2.598-5.939a1.843 1.843 0 0 0-1.68-1.09h-4.979v7.03zM11.789 30.594c1.638 0 2.969-1.299 2.969-2.897 0-1.597-1.331-2.896-2.969-2.896-.051 0-.102.001-.152.005-1.365.067-2.488 1.038-2.757 2.309a2.897 2.897 0 0 0-.056.426v.008a2.73 2.73 0 0 0-.003.133v.016-.001c0 1.598 1.331 2.897 2.968 2.897zM1.441 22.383h1.125v1.406H1.44v3.131c0 .041.034.074.077.074h5.92l.021-.103c.005-.024.008-.049.014-.073.011-.054.023-.107.038-.16l.009-.038c.017-.065.037-.129.057-.194l.019-.057.046-.133.029-.072c.041-.106.068-.169.096-.231l-.016.04.049-.106c.011-.026.025-.051.039-.077l.053-.103.042-.074c.081-.139.151-.249.225-.356l-.013.019.077-.104.042-.057c.034-.045.069-.088.106-.131l.018-.023c.043-.05.087-.101.131-.149l.043-.046.096-.097.057-.054.088-.083.063-.054.09-.075.066-.054c.039-.032.092-.071.144-.11l.016-.011c.032-.023.064-.046.097-.066l.069-.047.103-.065.069-.041.117-.065.061-.034c.055-.029.111-.056.167-.082.005-.002.009-.006.015-.007.061-.03.123-.057.185-.082l.191-.074.075-.026c.012-.005.052-.019.092-.031l.028-.008c.101-.033.236-.069.374-.099l.03-.005.086-.019c.087-.018.201-.036.317-.049l.019-.002.082-.009.144-.011c.023 0 .046-.003.07-.003a3.612 3.612 0 0 1 .442 0h-.01c.024 0 .047.002.071.005.048.002.096.006.143.011.027.001.055.006.082.008a4.1 4.1 0 0 1 .239.033l-.024-.003.121.021.087.018c.138.029.246.056.352.088l-.031-.008.082.025c.04.011.08.025.119.039l.075.026.13.05.061.023c.153.064.274.122.391.186l-.024-.012.061.033.117.065.069.041.103.065.07.046.096.069c.062.043.114.083.165.124l-.005-.004.067.054c.031.024.061.05.09.075l.062.054.146.137.096.098.042.046c.085.092.169.191.249.293l.008.01.041.055c.026.034.053.07.077.105l.045.066c.051.073.107.161.159.252l.01.019.041.074.054.103.038.075.05.109.033.074c.017.039.032.078.047.117l.027.071c.017.045.032.089.047.135l.019.055c.021.064.039.13.057.194l.007.032c.015.055.027.111.04.167l.013.069.022.106h12.453V6.106c0-.389.322-.704.72-.704h10.419c.017 0 .072 0 .106-.063a.104.104 0 0 0-.007-.12L37.579 1.92a1.183 1.183 0 0 0-.972-.511H17.784a.393.393 0 0 0-.277.113l-1.192 1.162a1.84 1.84 0 0 1-1.289.525H2.596c-.632 0-1.145.508-1.154 1.137v18.04z"/><path d="M5.536 7.198h8.814c1.019 0 1.848.809 1.848 1.802v4.101c0 .994-.83 1.802-1.848 1.802H5.535c-1.018 0-1.847-.808-1.847-1.802V9c0-.994.829-1.802 1.848-1.802zm-.407 5.903c0 .217.183.397.407.397h8.819c.22 0 .399-.177.402-.396V9.001a.403.403 0 0 0-.407-.397H5.532A.402.402 0 0 0 5.13 9v4.101z"/></symbol><symbol id="icon-water" viewBox="0 0 32 32"><path stroke-miterlimit="10" stroke-width="2.4" d="M25 20c0 5.523-3.477 9-9 9s-9-3.477-9-9c0-5.926 6.451-13.928 8.432-16.243a.75.75 0 0 1 1.137-.001l.001.001C18.549 6.072 25 14.074 25 20z"/><path stroke-linecap="round" stroke-linejoin="round" stroke-width="2.4" d="M21.501 20.501A4.499 4.499 0 0 1 17.002 25H17"/></symbol></defs></svg>